<?xml version="1.0" encoding="UTF-8" standalone="no"?>
<!DOCTYPE svg PUBLIC "-//W3C//DTD SVG 1.1//EN" "http://www.w3.org/Graphics/SVG/1.1/DTD/svg11.dtd">
<svg width="100%" height="100%" viewBox="0 0 1100 1100" version="1.1" xmlns="http://www.w3.org/2000/svg" xmlns:xlink="http://www.w3.org/1999/xlink" xml:space="preserve" xmlns:serif="http://www.serif.com/" style="fill-rule:evenodd;clip-rule:evenodd;stroke-miterlimit:10;">
    <g id="V-JEDNADVACET-copy-copy" transform="matrix(1,0,0,1,-239.835,-352.034)">
        <rect x="240.835" y="353.034" width="1098" height="1098" style="fill-rule:nonzero;stroke:black;stroke-width:2px;"/>
        <path d="M240.835,902.034C240.835,598.829 486.631,353.034 789.835,353.034C1093.04,353.034 1338.83,598.829 1338.83,902.034C1338.83,1205.24 1093.04,1451.03 789.835,1451.03C486.631,1451.03 240.835,1205.24 240.835,902.034Z" style="fill-opacity:0;fill-rule:nonzero;"/>
        <g>
            <path d="M1004.48,983.724L1004.48,1027.92L1040.88,1027.92L1040.88,1175.34L1084.82,1175.34L1084.82,1027.92L1121.48,1027.92L1121.48,983.724L1004.48,983.724Z" style="fill:white;fill-rule:nonzero;"/>
            <path d="M993.62,984.504L871.16,984.764L871.16,1175.34L993.62,1175.34L993.62,1131.4L915.1,1131.4L915.1,1101.24L978.8,1101.24L978.8,1057.3L915.1,1057.3L915.1,1028.44L993.62,1028.44L993.62,984.504Z" style="fill:white;fill-rule:nonzero;"/>
            <path d="M795.16,1175.08C820.12,1175.08 844.04,1165.98 862.76,1147.26L831.82,1116.06C811.54,1136.34 778.78,1136.08 758.76,1116.06C749.14,1105.92 743.68,1093.44 743.68,1079.66C743.68,1065.88 749.14,1053.14 758.76,1043C778.78,1022.98 811.54,1022.72 831.82,1043L862.76,1012.06C825.32,974.624 765,974.624 727.56,1012.06C709.62,1030 699.74,1053.66 699.74,1079.66C699.74,1105.4 709.62,1128.8 727.56,1147.26C746.28,1165.98 770.46,1175.08 795.16,1175.08Z" style="fill:white;fill-rule:nonzero;"/>
        </g>
        <g>
            <path d="M1121.48,971.065L1059.86,780.225L1018.26,780.225L953.26,971.065L999.8,971.065L1007.6,947.925L1067.66,947.925L1075.2,971.065L1121.48,971.065ZM1038.54,857.705L1053.62,903.985L1022.68,903.985L1038.54,857.705Z" style="fill:white;fill-rule:nonzero;"/>
            <path d="M920.58,896.705L883.92,778.665L837.64,778.665L899.26,971.065L940.86,971.065L1005.86,778.665L959.32,778.665L920.58,896.705Z" style="fill:white;fill-rule:nonzero;"/>
            <path d="M761.64,779.185L717.7,779.185L717.7,971.065L761.64,971.065C813.38,968.205 853.16,927.645 853.16,876.425C853.16,824.685 812.6,782.305 761.64,779.445L761.64,779.185ZM761.64,823.385C788.42,826.245 809.22,849.125 809.22,876.425C809.22,902.945 788.68,924.005 761.64,926.865L761.64,823.385Z" style="fill:white;fill-rule:nonzero;"/>
        </g>
        <g>
            <path d="M1121.06,768.63L1059.44,577.79L1017.84,577.79L952.84,768.63L999.38,768.63L1007.18,745.49L1067.24,745.49L1074.78,768.63L1121.06,768.63ZM1038.12,655.27L1053.2,701.55L1022.26,701.55L1038.12,655.27Z" style="fill:white;fill-rule:nonzero;"/>
            <path d="M906.7,689.33L844.56,578.31L796.72,578.31L796.72,768.63L840.66,768.63L840.66,657.35L903.06,768.63L950.64,768.63L950.64,577.79L906.7,577.79L906.7,689.33Z" style="fill:white;fill-rule:nonzero;"/>
            <path d="M698.06,576.75L654.12,576.75L654.12,768.63L698.06,768.63C749.8,765.77 789.58,725.21 789.58,673.99C789.58,622.25 749.02,579.87 698.06,577.01L698.06,576.75ZM698.06,620.95C724.84,623.81 745.64,646.69 745.64,673.99C745.64,700.51 725.1,721.57 698.06,724.43L698.06,620.95Z" style="fill:white;fill-rule:nonzero;"/>
            <path d="M642.12,577.79L519.66,578.05L519.66,768.63L642.12,768.63L642.12,724.69L563.6,724.69L563.6,694.53L627.3,694.53L627.3,650.59L563.6,650.59L563.6,621.73L642.12,621.73L642.12,577.79Z" style="fill:white;fill-rule:nonzero;"/>
            <path d="M461.72,574.67L461.72,696.35C461.72,712.47 448.46,724.69 433.12,724.69C425.32,724.69 418.56,721.83 412.84,716.11C407.38,710.39 404.78,703.63 404.78,695.83L360.84,695.31C360.58,715.07 367.86,733.01 381.38,746.79C395.16,760.57 412.84,768.37 432.6,768.63L433.38,768.63C472.64,768.63 505.66,736.91 505.66,696.61L505.66,574.67L461.72,574.67Z" style="fill:white;fill-rule:nonzero;"/>
        </g>
        <g>
            <path d="M1213.83,1130.54C1205.94,1162.2 1173.87,1181.47 1142.2,1173.57C1110.55,1165.68 1091.28,1133.61 1099.18,1101.95C1107.07,1070.28 1139.14,1051.01 1170.79,1058.9C1202.46,1066.8 1221.73,1098.87 1213.83,1130.54Z" style="fill:rgb(247,147,26);fill-rule:nonzero;"/>
            <path d="M1182.56,1107.82C1183.74,1099.96 1177.75,1095.73 1169.56,1092.91L1172.22,1082.25L1165.73,1080.64L1163.15,1091.01C1161.44,1090.59 1159.69,1090.19 1157.95,1089.79L1160.56,1079.35L1154.08,1077.73L1151.42,1088.38C1150.01,1088.06 1148.62,1087.74 1147.28,1087.41L1147.29,1087.37L1138.34,1085.14L1136.62,1092.07C1136.62,1092.07 1141.43,1093.17 1141.33,1093.24C1143.95,1093.89 1144.43,1095.63 1144.35,1097.01L1141.32,1109.15C1141.5,1109.19 1141.74,1109.26 1142,1109.36C1141.78,1109.31 1141.55,1109.25 1141.31,1109.19L1137.07,1126.19C1136.75,1126.99 1135.94,1128.19 1134.1,1127.73C1134.16,1127.83 1129.39,1126.56 1129.39,1126.56L1126.17,1133.98L1134.61,1136.08C1136.18,1136.48 1137.71,1136.89 1139.23,1137.28L1136.55,1148.05L1143.02,1149.67L1145.68,1139.01C1147.45,1139.49 1149.17,1139.93 1150.85,1140.35L1148.2,1150.96L1154.68,1152.58L1157.37,1141.82C1168.43,1143.91 1176.74,1143.07 1180.24,1133.07C1183.06,1125.02 1180.1,1120.37 1174.28,1117.34C1178.52,1116.36 1181.71,1113.58 1182.56,1107.82ZM1167.75,1128.6C1165.74,1136.65 1152.18,1132.3 1147.79,1131.2L1151.35,1116.93C1155.74,1118.03 1169.84,1120.2 1167.75,1128.6ZM1169.75,1107.7C1167.92,1115.03 1156.64,1111.31 1152.98,1110.39L1156.21,1097.45C1159.87,1098.36 1171.66,1100.06 1169.75,1107.7Z" style="fill:white;fill-rule:nonzero;"/>
        </g>
        <g>
            <path d="M361.603,815.159L361.603,999.118C361.603,1083.72 430.171,1152.29 514.774,1152.29C599.377,1152.29 667.945,1083.72 667.945,999.118L667.945,815.159L361.603,815.159Z" style="fill:rgb(233,0,0);fill-rule:nonzero;stroke:black;stroke-width:3px;"/>
            <path d="M361.603,977.823L361.603,999.118C361.603,1083.72 430.171,1152.29 514.774,1152.29L514.774,977.823L361.603,977.823Z" style="fill:white;fill-rule:nonzero;stroke:black;stroke-width:2px;"/>
            <rect x="514.774" y="815.159" width="153.171" height="162.664" style="fill:white;fill-rule:nonzero;stroke:black;stroke-width:2px;"/>
            <path d="M570.471,917.708L563.799,926.162C556.711,924.53 550.448,925.415 550.459,934.14L569.038,934.556L578.155,923.862" style="fill:rgb(233,0,0);fill-rule:nonzero;stroke:black;stroke-width:2px;"/>
            <path d="M625.29,935.598L604.659,935.182C604.766,921.779 618.789,926.838 627.144,927.458" style="fill:rgb(233,0,0);fill-rule:nonzero;stroke:black;stroke-width:2px;"/>
            <path d="M562.436,919.626C550.108,918.895 537.773,915.815 528.841,909.857C527.402,908.678 526.214,906.921 527.579,905.646L526.798,904.216C536.267,901.751 544.504,898.956 548.529,887.781L546.445,871.345C550.596,874.386 552.109,877.867 552.954,881.459C554.016,876.779 555.199,872.1 556.813,867.42C558.643,870.177 560.264,872.933 561.54,875.69C564.173,869.856 567.496,864.71 572.345,861.091L571.778,872.39C576.285,866.191 581.518,860.597 589.334,857.156C588.457,860.221 587.717,863.287 588.479,866.352C595.411,860.259 602.343,858.824 609.275,858.802C607.521,861.102 605.297,862.697 604.565,866.53C611.297,863.589 618.418,861.426 627.35,862.887C623.343,865.475 618.45,868.063 617.042,870.651C624.509,869.466 634.368,870.066 640.74,872.164C636.649,873.192 631.513,875.679 631.101,878.165C637.513,878.867 646.256,879.755 651.026,884.288C647.881,885.28 644.863,886.43 643.9,890.148C649.63,892.58 651.745,891.712 657.018,898.287C656.159,898.427 651.572,898.158 649.81,900.299C653.338,901.917 655.884,904.397 656.718,908.375C653.981,908.834 653.9,908.624 651.194,909.915C653.687,912.085 653.742,915.056 654.269,918.277L645.971,919.102L647.537,926.069L638.925,928.944L633.681,935.898L619.919,935.898C617.428,937.409 614.699,938.444 611.535,938.607C610.109,926.668 622.544,928.758 629.443,926.416C616.065,929.555 598.735,928.648 583.141,924.363L578.776,930.892L574.903,936.686L562.77,936.254C560.311,937.505 557.922,938.037 555.877,937.794C555.736,930.217 562.33,929.464 568.77,929.014L571.918,922.31L562.436,919.626Z" style="fill:rgb(233,0,0);fill-rule:nonzero;stroke:black;stroke-width:2px;"/>
            <path d="M549.81,899.305C549.81,900.352 548.962,901.202 547.915,901.202C546.868,901.202 546.02,900.352 546.02,899.305C546.02,898.781 546.232,898.306 546.575,897.963L547.128,897.534L549.255,897.963C549.598,898.306 549.81,898.781 549.81,899.305Z" style="fill:white;fill-rule:nonzero;stroke:black;stroke-width:2px;"/>
            <path d="M547.128,897.534C547.136,898.428 546.913,899.226 547.605,900.06" style="fill:none;fill-rule:nonzero;stroke:black;stroke-width:2px;"/>
            <path d="M565.079,908.579L571.571,913.647L572.43,909.755L579.935,915.348L581.053,911.901L588.709,918.535L589.676,914.047L599.418,920.91L599.181,915.027L609.144,921.112L608.277,915.546L616.265,921.103L617.438,916.909L622.829,920.906L625.442,918.425L630.739,922.31L632.923,920.178L637.254,922" style="fill:none;fill-rule:nonzero;stroke:black;stroke-width:2px;"/>
            <path d="M565.417,899.738L563.958,891.611L570.835,902.031L575.212,890.152L578.129,900.78L585.84,889.318L587.507,899.53L594.801,888.276L598.135,897.863L604.387,891.194L606.263,899.113L613.765,892.861L614.599,900.155L622.309,895.987L621.059,903.073L629.187,898.279L631.271,905.157L638.356,902.239L639.398,908.283L645.713,911.503" style="fill:none;fill-rule:nonzero;stroke:black;stroke-width:2px;"/>
            <path d="M558.78,884.411L557.738,877.534L565.24,886.078L568.366,876.284L572.534,884.828C574.842,878.643 578.147,873.787 582.12,869.823L581.912,883.578C585.556,878.042 589.383,873.421 593.582,870.657L592.123,883.578C595.135,878.372 598.629,874.613 602.751,872.741L601.293,884.828C604.258,881.079 608.494,877.777 612.546,875.658L610.879,884.411L621.299,879.618L619.215,887.12L629.01,884.828L627.759,890.246L635.678,889.204L635.47,893.997" style="fill:none;fill-rule:nonzero;stroke:black;stroke-width:2px;"/>
            <g>
                <path d="M423.012,1070.97L416.34,1079.43C409.252,1077.79 402.989,1078.68 403.001,1087.4L421.58,1087.82L430.696,1077.13" style="fill:rgb(233,0,0);fill-rule:nonzero;stroke:black;stroke-width:2px;"/>
                <path d="M477.832,1088.86L457.2,1088.45C457.307,1075.04 471.331,1080.1 479.685,1080.72" style="fill:rgb(233,0,0);fill-rule:nonzero;stroke:black;stroke-width:2px;"/>
                <path d="M414.977,1072.89C402.649,1072.16 390.315,1069.08 381.383,1063.12C379.943,1061.94 378.755,1060.18 380.12,1058.91L379.339,1057.48C388.808,1055.01 397.045,1052.22 401.07,1041.04L398.986,1024.61C403.137,1027.65 404.651,1031.13 405.495,1034.72C406.557,1030.04 407.741,1025.36 409.354,1020.68C411.185,1023.44 412.805,1026.2 414.081,1028.95C416.715,1023.12 420.037,1017.97 424.887,1014.35L424.32,1025.65C428.827,1019.45 434.059,1013.86 441.875,1010.42C440.998,1013.49 440.258,1016.55 441.02,1019.62C447.952,1013.52 454.884,1012.09 461.816,1012.07C460.063,1014.37 457.838,1015.96 457.107,1019.79C463.838,1016.85 470.959,1014.69 479.892,1016.15C475.884,1018.74 470.991,1021.33 469.584,1023.92C477.05,1022.73 486.909,1023.33 493.281,1025.43C489.19,1026.46 484.055,1028.94 483.642,1031.43C490.054,1032.13 498.797,1033.02 503.567,1037.55C500.422,1038.54 497.405,1039.69 496.441,1043.41C502.171,1045.84 504.286,1044.98 509.559,1051.55C508.701,1051.69 504.113,1051.42 502.352,1053.56C505.88,1055.18 508.425,1057.66 509.259,1061.64C506.522,1062.1 506.442,1061.89 503.736,1063.18C506.228,1065.35 506.284,1068.32 506.81,1071.54L498.513,1072.37L500.079,1079.33L491.467,1082.21L486.222,1089.16L472.46,1089.16C469.97,1090.67 467.241,1091.71 464.076,1091.87C462.651,1079.93 475.085,1082.02 481.985,1079.68C468.606,1082.82 451.276,1081.91 435.682,1077.63L431.318,1084.16L427.444,1089.95L415.311,1089.52C412.852,1090.77 410.463,1091.3 408.418,1091.06C408.277,1083.48 414.871,1082.73 421.311,1082.28L424.46,1075.57L414.977,1072.89Z" style="fill:rgb(233,0,0);fill-rule:nonzero;stroke:black;stroke-width:2px;"/>
                <path d="M402.352,1052.57C402.352,1053.62 401.503,1054.47 400.456,1054.47C399.409,1054.47 398.561,1053.62 398.561,1052.57C398.561,1052.04 398.773,1051.57 399.116,1051.23L399.669,1050.8L401.796,1051.23C402.139,1051.57 402.352,1052.04 402.352,1052.57Z" style="fill:white;fill-rule:nonzero;stroke:black;stroke-width:2px;"/>
                <path d="M399.669,1050.8C399.677,1051.69 399.454,1052.49 400.146,1053.32" style="fill:none;fill-rule:nonzero;stroke:black;stroke-width:2px;"/>
                <path d="M417.62,1061.84L424.112,1066.91L424.971,1063.02L432.476,1068.61L433.594,1065.17L441.25,1071.8L442.217,1067.31L451.959,1074.17L451.723,1068.29L461.685,1074.38L460.818,1068.81L468.806,1074.37L469.98,1070.17L475.37,1074.17L477.984,1071.69L483.28,1075.57L485.464,1073.44L489.795,1075.26" style="fill:none;fill-rule:nonzero;stroke:black;stroke-width:2px;"/>
                <path d="M417.958,1053L416.499,1044.87L423.376,1055.29L427.753,1043.42L430.67,1054.04L438.381,1042.58L440.048,1052.79L447.342,1041.54L450.677,1051.13L456.929,1044.46L458.804,1052.38L466.306,1046.13L467.14,1053.42L474.851,1049.25L473.6,1056.34L481.728,1051.54L483.812,1058.42L490.897,1055.5L491.939,1061.55L498.254,1064.77" style="fill:none;fill-rule:nonzero;stroke:black;stroke-width:2px;"/>
                <path d="M411.321,1037.68L410.279,1030.8L417.781,1039.34L420.907,1029.55L425.075,1038.09C427.383,1031.91 430.688,1027.05 434.661,1023.09L434.453,1036.84C438.097,1031.31 441.925,1026.69 446.123,1023.92L444.664,1036.84C447.676,1031.64 451.17,1027.88 455.293,1026.01L453.834,1038.09C456.799,1034.34 461.035,1031.04 465.087,1028.92L463.42,1037.68L473.84,1032.88L471.756,1040.38L481.551,1038.09L480.3,1043.51L488.22,1042.47L488.011,1047.26" style="fill:none;fill-rule:nonzero;stroke:black;stroke-width:2px;"/>
            </g>
            <g transform="matrix(0.0548071,0,0,0.0548071,330.36,784.315)">
                <g>
                    <path d="M1376.76,2472.8C1362.3,2486.23 1350.43,2502.25 1347.34,2519.33C1344.23,2534.84 1348.88,2551.39 1355.08,2565.35C1357.15,2569.47 1359.21,2573.62 1361.27,2577.23C1362.3,2562.76 1364.37,2548.8 1366.43,2534.32C1369.53,2513.63 1373.15,2493.47 1376.76,2472.8ZM2778.96,2769.07C2757.28,2780.97 2734.04,2784.59 2709.78,2776.32L2703.07,2773.74C2683.96,2786.14 2659.19,2789.23 2636.99,2785.62C2631.81,2785.11 2618.4,2783.03 2612.72,2783.56C2595.68,2792.85 2575.55,2794.93 2556.96,2786.14C2552.32,2784.06 2547.67,2780.97 2544.05,2777.35C2537.86,2780.97 2531.15,2784.06 2523.92,2785.62C2515.14,2788.2 2505.85,2788.73 2497.07,2787.7C2474.36,2797.52 2451.13,2799.07 2427.9,2788.2L2421.18,2785.62C2401.04,2795.96 2375.75,2796.49 2354.07,2791.31C2346.83,2789.76 2339.61,2787.7 2332.38,2786.14C2312.76,2795.96 2290.05,2793.9 2268.37,2790.79C2221.9,2784.59 2186.27,2746.32 2166.66,2705.99C2142.91,2656.35 2139.29,2598.95 2151.69,2546.22C2167.18,2481.58 2175.43,2421.6 2162.53,2355.93C2158.91,2335.25 2153.23,2314.56 2147.55,2294.39C2136.71,2304.21 2124.33,2313 2110.9,2320.25C2057.72,2349.71 1945.7,2349.71 1885.29,2346.1C1838.82,2343.51 1784.61,2337.31 1737.64,2323.35C1736.61,2379.72 1718.53,2432.97 1689.1,2481.06L1684.98,2487.79L1679.3,2492.96C1666.91,2503.29 1654.52,2515.18 1644.19,2528.12C1637.48,2535.87 1621.99,2557.07 1624.05,2567.94C1624.58,2569.47 1625.08,2571.03 1626.12,2572.06C1644.19,2582.4 1661.22,2593.78 1677.23,2607.23C1722.15,2643.42 1754.67,2693.59 1731.96,2752.52L1725.76,2767.53L1711.82,2776.32C1688.6,2790.79 1661.74,2794.93 1635.41,2787.7C1625.08,2790.28 1614.77,2790.79 1604.44,2789.23C1589.98,2786.67 1573.46,2787.7 1559,2788.2C1517.19,2790.28 1470.21,2793.9 1434.07,2768.56L1432.52,2775.8L1408.25,2785.62C1381.92,2795.96 1355.08,2804.24 1327.2,2793.9C1325.14,2792.85 1323.07,2792.34 1321.01,2791.31C1311.71,2796.49 1301.38,2799.58 1290.54,2800.63C1241.5,2805.27 1177.48,2779.41 1156.83,2731.33C1154.25,2730.82 1151.67,2729.77 1149.09,2728.74C1126.88,2719.43 1113.98,2702.38 1105.72,2681.16C1084.04,2625.32 1056.68,2571.55 1033.95,2516.22C1024.14,2492.96 1022.08,2468.65 1028.79,2443.82C1037.57,2412.81 1059.25,2386.42 1084.55,2366.79C1093.33,2355.93 1100.04,2344.54 1105.2,2331.63C1119.66,2296.98 1123.27,2255.6 1127.92,2218.39C1127.92,2215.28 1128.44,2212.18 1128.95,2208.57C1126.88,2211.66 1124.82,2214.77 1122.76,2217.36C1088.69,2262.33 1054.09,2300.6 1006.08,2330.08C961.156,2357.47 911.081,2374.02 859.451,2383.33C844.486,2385.92 828.481,2387.47 812.992,2387.98C786.662,2388.5 753.622,2384.36 735.031,2362.64C719.026,2343.51 721.097,2318.7 729.353,2295.95C739.679,2268.03 762.917,2247.34 791.309,2238.55C827.451,2227.17 858.42,2208.57 884.235,2179.6C929.672,2128.92 954.972,2052.92 976.13,1989.31C1023.11,1847.12 1098.49,1723.02 1233.23,1649.59C1313.26,1606.16 1402.57,1586.5 1492.41,1575.65C1592.04,1563.75 1692.2,1562.21 1792.36,1558.07C1905.43,1552.9 2018.49,1545.15 2130,1527.04C2258.04,1505.85 2381.95,1471.2 2501.2,1420.01L2540.44,1403.47C2543.54,1398.81 2546.64,1394.67 2549.73,1390.54C2563.16,1371.4 2577.09,1352.27 2593.1,1334.69C2640.08,1281.95 2696.87,1248.34 2762.95,1224.03C2886.34,1179.05 3007.15,1195.6 3118.66,1263.33L3173.91,1296.42C3176.48,1298.5 3180.62,1301.08 3183.71,1302.64L3184.75,1302.64L3187.33,1303.67C3201.79,1309.35 3216.76,1314.53 3231.22,1321.25L3237.41,1323.83L3239.99,1329.52C3255.48,1360.03 3272,1391.58 3276.13,1425.7C3279.23,1454.14 3273.55,1479.99 3260.13,1504.81C3259.61,1538.94 3243.09,1568.41 3219.34,1592.2C3193.53,1617.54 3160.48,1635.12 3126.41,1644.94C3086.65,1655.8 3047.42,1675.97 3009.73,1693.03C3000.95,1697.16 2991.66,1701.3 2982.37,1704.92L2942.1,1741.12C2920.93,1760.25 2899.77,1790.76 2884.28,1814.55C2868.28,1839.36 2850.72,1869.36 2840.9,1897.28C2822.32,1947.96 2813.54,2002.77 2805.8,2055.5C2795.99,2119.1 2787.21,2183.23 2770.7,2245.28C2764.5,2268.53 2757.28,2291.3 2749.02,2314.05C2729.91,2367.31 2706.16,2418.49 2689.12,2471.75C2681.9,2493.47 2669,2537.43 2679.32,2559.15C2683.96,2569.47 2695.33,2575.69 2706.16,2579.82C2759.85,2580.34 2823.87,2594.3 2849.17,2647.04C2870.85,2691 2852.79,2747.88 2805.29,2764.93C2797.03,2768.04 2787.74,2769.59 2778.96,2769.07Z" style="fill:white;"/>
                    <path d="M1402.06,2430.39C1366.95,2453.14 1335.46,2482.09 1329.26,2516.22C1325.65,2535.87 1330.29,2555.01 1338.56,2573.11C1348.37,2594.83 1365.4,2614.99 1381.41,2632.57C1383.48,2634.63 1385.54,2637.22 1387.09,2639.28C1384.51,2629.98 1381.92,2620.67 1380.89,2610.85C1377.27,2586.02 1380.89,2561.73 1384.51,2537.43C1390.19,2501.75 1396.38,2466.07 1402.06,2430.39ZM2552.32,1417.94C2556.44,1412.25 2560.57,1407.08 2564.71,1401.39C2577.62,1382.26 2591.04,1364.16 2606.52,1347.11C2651.95,1296.42 2706.16,1264.37 2769.15,1241.1C2887.37,1198.18 3001.99,1213.7 3109.38,1278.85L3164.61,1312.46C3167.71,1314.01 3177.53,1320.21 3180.62,1320.73C3196.11,1326.93 3209.01,1331.07 3223.98,1337.79C3249.8,1390.02 3277.16,1440.69 3242.05,1499.64C3242.57,1531.19 3228.12,1557.55 3206.43,1579.27C3183.2,1602.02 3152.74,1618.57 3121.25,1627.36C3072.72,1640.8 3023.16,1668.21 2972.56,1689.4L2929.71,1727.67C2893.57,1760.25 2840.4,1844.53 2823.35,1890.56C2804.77,1942.26 2795.48,1998.63 2787.74,2052.92C2777.93,2115.99 2769.66,2178.57 2753.14,2240.61C2746.95,2263.36 2739.72,2285.61 2731.97,2307.83C2712.88,2361.11 2689.12,2412.81 2671.57,2466.07C2662.79,2493.47 2649.38,2539.49 2662.28,2566.91C2670.03,2582.93 2686.55,2592.22 2702.55,2597.92C2749.53,2597.92 2810.45,2608.26 2833.16,2655.32C2849.69,2689.44 2836.27,2734.44 2799.09,2747.88C2791.35,2750.46 2782.57,2751.49 2774.31,2750.46C2756.76,2761.31 2737.65,2766.48 2715.97,2758.74L2710.81,2757.19L2706.68,2754.08C2705.64,2753.05 2704.1,2752.02 2702.55,2750.97C2687.58,2766.48 2662.28,2771.15 2639.56,2767.53C2633.37,2767.01 2611.69,2763.39 2605.49,2767.01C2593.1,2773.74 2578.12,2775.8 2565.22,2769.59C2556.44,2765.45 2550.76,2759.77 2546.64,2752.52C2539.4,2759.77 2530.11,2765.45 2519.28,2768.04C2511.01,2770.1 2502.23,2770.1 2493.98,2768.56C2475.39,2777.88 2455.77,2780.97 2435.12,2771.66L2430.47,2769.59L2426.86,2765.98C2425.31,2764.93 2423.77,2763.39 2422.72,2762.36C2406.21,2776.83 2380.39,2778.89 2358.71,2773.21C2352,2771.66 2338.58,2768.04 2329.28,2767.01C2312.25,2777.88 2290.56,2775.27 2270.94,2772.7C2230.68,2767.53 2200.22,2732.36 2183.18,2697.73C2161.5,2652.21 2157.88,2599.48 2169.75,2550.34C2185.76,2483.12 2194.02,2421.07 2180.6,2352.83C2175.43,2326.46 2168.21,2300.09 2160.98,2274.23C2158.91,2268.53 2157.37,2261.83 2156.33,2255.6C2142.39,2275.79 2124.84,2291.81 2102.13,2304.21C2053.08,2331.63 1941.57,2331.11 1886.32,2328.01C1839.35,2325.43 1769.65,2317.67 1718.53,2297.5L1719.05,2303.71C1722.15,2364.2 1704.6,2420.57 1673.62,2471.75L1671.04,2475.89L1667.42,2479C1647.81,2496.05 1599.79,2541.05 1606.5,2572.06C1607.53,2577.23 1610.12,2581.9 1613.73,2586.02C1668.97,2617.58 1742.79,2673.42 1714.92,2745.81L1711.31,2755.11L1702.53,2760.81C1682.91,2772.7 1661.22,2775.8 1639.54,2769.59L1634.38,2768.56C1626.12,2771.66 1616.83,2772.7 1607.53,2771.15C1591.53,2768.56 1573.98,2769.59 1557.97,2770.1C1520.29,2771.66 1473.3,2776.32 1441.29,2751.49C1433.55,2744.78 1426.84,2737.53 1422.2,2728.74C1422.2,2734.44 1421.17,2740.12 1420.13,2745.81L1417.03,2762.36L1401.54,2768.56C1379.86,2776.83 1356.11,2785.11 1333.91,2776.83C1328.75,2774.77 1324.61,2772.18 1320.49,2769.59C1311.71,2776.83 1300.35,2780.97 1288.48,2782.52C1245.12,2786.67 1184.19,2761.84 1171.29,2716.86C1166.12,2715.31 1161.48,2714.26 1155.8,2711.69C1138.76,2704.44 1129.47,2691 1122.76,2674.45C1100.56,2618.08 1073.71,2564.83 1050.47,2508.98C1029.31,2457.28 1056.68,2410.73 1097.46,2379.72C1107.78,2367.82 1116.05,2353.86 1122.24,2338.86C1137.21,2302.15 1141.34,2259.75 1145.99,2220.45C1149.09,2193.05 1152.7,2166.16 1158.89,2139.27C1140.82,2160.99 1124.82,2183.74 1107.78,2206.49C1075.26,2249.4 1042.73,2285.61 996.267,2314.56C953.417,2340.92 905.918,2356.44 856.358,2365.23C809.891,2373.51 719.026,2378.68 746.388,2302.15C754.652,2279.4 773.75,2263.36 796.472,2256.13C836.221,2243.2 869.777,2223.03 897.663,2192.02C945.152,2139.27 971.482,2061.2 993.166,1995.01C1039.12,1857.46 1111.4,1736.46 1242.01,1665.62C1319.46,1623.22 1407.22,1604.09 1494.47,1593.75C1593.07,1582.37 1693.75,1580.3 1793.39,1576.17C1906.97,1571.51 2020.03,1563.75 2133.11,1545.15C2262.69,1523.43 2387.62,1488.78 2508.43,1437.08L2552.32,1417.94Z"/>
                    <path d="M2520.82,1465C2500.69,1489.3 2455.77,1514.64 2416.53,1526.01C2618.4,1508.95 2546.64,1355.37 2779.99,1270.06C2869.31,1237.48 2975.66,1233.34 3093.37,1305.22C3011.8,1287.12 2913.7,1329 2839.88,1362.61C2826.97,1367.27 2792.38,1377.09 2768.12,1360.03C2749.02,1347.11 2727.34,1340.38 2704.1,1344C2655.05,1352.78 2631.31,1402.43 2615.81,1443.79C2609.1,1461.9 2603.94,1478.44 2598.78,1494.98C2578.12,1553.41 2542.51,1607.19 2490.88,1656.31C2397.95,1739.05 2251.85,1803.17 2052.56,1848.15C1909.04,1885.38 1776.87,1897.28 1656.59,1884.86C1521.83,1848.67 1411.87,1827.98 1326.17,1823.85C1239.44,1819.2 1166.64,1863.15 1107.27,1956.22C1107.27,1956.22 1068.55,2033.78 991.104,2189.43C956.518,2244.25 910.05,2283.53 851.71,2307.33C809.891,2324.38 784.076,2329.55 773.243,2323.35C773.243,2311.47 782.014,2292.84 805.758,2285.08C936.896,2243.72 979.231,2134.1 1022.6,2004.83C1229.63,1380.71 1798.04,1774.21 2520.82,1465Z" style="fill:white;"/>
                    <path d="M1647.81,2740.12C1661.22,2743.73 1674.14,2742.18 1686.52,2734.44C1702.01,2694.62 1671.04,2653.24 1594.11,2610.33C1556.43,2571.03 1573.98,2519.33 1647.29,2455.72C1666.39,2424.69 1678.78,2393.68 1684.46,2362.14C1643.67,2360.58 1593.07,2383.86 1533.2,2431.94C1446.97,2502.78 1422.71,2581.37 1461.43,2668.25C1469.69,2695.65 1486.73,2710.13 1512.54,2711.16C1549.71,2726.16 1581.21,2735.47 1606.5,2739.61C1608.57,2740.12 1610.12,2740.64 1612.18,2740.64C1640.58,2744.26 1630.77,2707.02 1621.48,2690.48C1638,2701.34 1646.78,2717.89 1647.81,2740.12ZM3226.04,1429.83C3227.6,1445.86 3228.12,1459.83 3227.09,1470.68C3217.27,1472.23 3208.49,1471.2 3200.24,1468.61C3196.11,1462.93 3195.59,1455.68 3199.71,1447.42C3211.08,1442.25 3219.85,1436.55 3226.04,1429.83ZM2896.15,1435C2890.47,1437.08 2872.41,1452.58 2868.79,1456.21C2911.13,1377.09 2950.36,1412.77 3001.99,1410.7C2995.8,1412.77 2976.18,1417.43 2969.98,1417.43C2960.69,1465 2896.67,1463.97 2896.15,1435ZM2763.47,1508.95C2725.78,1502.74 2744.37,1468.1 2728.37,1455.68C2717.01,1452.07 2707.71,1460.86 2699.45,1481.54C2706.68,1421.04 2765.53,1414.84 2754.7,1469.13C2751.08,1488.26 2748.49,1494.98 2763.47,1508.95ZM2794.45,1880.21C2756.76,1983.63 2756.76,2107.2 2723.72,2232.85C2678.28,2405.56 2545.08,2578.79 2697.39,2628.95C2855.36,2625.84 2813.54,2740.64 2768.63,2716.86C2748.49,2732.88 2736.62,2733.39 2725.78,2729.77C2708.23,2716.34 2686.03,2707.02 2660.22,2703.41C2667.96,2708.05 2676.22,2713.23 2683.96,2719.43C2682.93,2737.01 2661.25,2740.64 2644.21,2737.53C2606.52,2732.36 2597.23,2735.99 2590.52,2740.12C2575.03,2748.91 2569.87,2734.44 2567.29,2717.89C2564.71,2698.23 2567.8,2681.69 2556.44,2664.11C2552.32,2658.41 2547.67,2653.24 2541.99,2648.59C2500.17,2608.26 2482.62,2564.83 2488.81,2517.26C2513.6,2334.22 2525.99,2242.69 2525.99,2242.69C2566.25,2162.54 2587.42,2077.73 2589.49,1988.28C2551.79,2195.11 2430.47,2200.28 2438.22,2370.93C2432.54,2445.38 2325.67,2602.57 2428.93,2640.33C2586.39,2652.21 2534.24,2762.36 2491.39,2734.44C2470.23,2748.91 2457.84,2748.4 2447.51,2743.73C2431.51,2728.22 2410.34,2717.37 2384.53,2711.16C2392.27,2716.34 2399.5,2722.54 2407.24,2729.27C2404.66,2746.84 2382.46,2748.4 2365.94,2743.73C2280.24,2724.09 2345.8,2754.6 2274.56,2742.18C2228.09,2738.06 2173.89,2655.84 2199.7,2557.59C2229.64,2416.43 2216.22,2356.97 2190.41,2265.95C2175.95,2215.28 2181.12,2147.55 2209.51,2094.8C2183.7,2111.35 2162.01,2138.24 2144.46,2175.47C2089.21,2254.07 1984.93,2288.19 1831.08,2278.37C1720.6,2268.53 1666.39,2230.79 1667.94,2165.13C1670.52,2143.41 1680.33,2121.17 1697.88,2102.56C1703.56,2091.18 1713.89,2079.28 1728.86,2066.88C1628.18,2074.11 1553.84,2137.71 1506.87,2258.21C1420.64,2322.84 1352.5,2387.98 1302.93,2452.61C1285.9,2479.5 1279.7,2508.98 1285.38,2540.52C1295.19,2577.76 1318.94,2613.96 1355.59,2650.15C1356.62,2651.18 1357.66,2652.21 1358.69,2653.24C1385.02,2684.27 1395.35,2713.23 1390.19,2739.61C1356.62,2753.05 1338.04,2757.19 1325.65,2723.57C1318.94,2705.47 1308.1,2689.97 1293.64,2677.55C1305.52,2698.23 1323.07,2747.88 1285.38,2752.02C1246.15,2755.63 1198.65,2728.74 1199.16,2698.76C1175.93,2678.59 1163.54,2694.09 1151.15,2663.08C1122.24,2589.13 1112.95,2570.52 1078.87,2497.61C1064.42,2457.28 1088.69,2424.18 1118.11,2402.47C1218.78,2290.25 1124.3,2097.91 1291.57,2009.48C1048.93,2095.83 1124.82,2318.17 784.6,2343C993.166,2309.91 1011.24,2194.61 1100.56,2048.77C1149.6,1973.8 1208.97,1902.46 1291.57,1886.41C1350.94,1875.04 1427.87,1895.73 1485.69,1910.2C1581.21,1933.47 1670,1953.63 1769.65,1951.05C1932.27,1946.91 2244.61,1880.21 2386.59,1802.65C2437.18,1775.24 2537.86,1712.16 2612.2,1602.54C2619.94,1588.06 2626.66,1573.58 2632.86,1558.07C2646.79,1527.56 2651.44,1492.92 2663.32,1461.9C2685,1403.98 2705.13,1382.78 2739.72,1402.43C2769.15,1426.22 2813.04,1412.77 2845.04,1401.39C2884.79,1387.43 2923,1369.33 2962.75,1353.82C3003.02,1338.31 3071.17,1315.04 3113.51,1333.14C3125.38,1338.31 3134.67,1338.82 3143.96,1337.28C3157.9,1343.48 3202.3,1364.16 3209.01,1369.86C3173.39,1365.71 3129.51,1362.1 3119.19,1429.83C3119.7,1451.04 3139.31,1457.75 3153.77,1457.75C3153.26,1465 3150.15,1470.68 3143.96,1474.82C3111.44,1483.09 3114.54,1487.75 3114.01,1500.15C3112.98,1518.25 3090.78,1530.66 3015.92,1548.25C3042.77,1547.73 3086.14,1538.94 3106.79,1530.66C3161.52,1508.44 3106.27,1496.54 3211.08,1503.26C3212.63,1537.9 3170.81,1578.24 3112.98,1597.37C3015.92,1619.6 2915.25,1704.41 2822.32,1685.27C2855.36,1696.13 2880.66,1701.82 2909.57,1704.92C2871.88,1738.01 2814.58,1825.92 2794.45,1880.21Z" style="fill:rgb(109,116,122);"/>
                </g>
            </g>
            <g transform="matrix(0.0548071,0,0,0.0548071,477.407,934.575)">
                <g>
                    <path d="M1376.76,2472.8C1362.3,2486.23 1350.43,2502.25 1347.34,2519.33C1344.23,2534.84 1348.88,2551.39 1355.08,2565.35C1357.15,2569.47 1359.21,2573.62 1361.27,2577.23C1362.3,2562.76 1364.37,2548.8 1366.43,2534.32C1369.53,2513.63 1373.15,2493.47 1376.76,2472.8ZM2778.96,2769.07C2757.28,2780.97 2734.04,2784.59 2709.78,2776.32L2703.07,2773.74C2683.96,2786.14 2659.19,2789.23 2636.99,2785.62C2631.81,2785.11 2618.4,2783.03 2612.72,2783.56C2595.68,2792.85 2575.55,2794.93 2556.96,2786.14C2552.32,2784.06 2547.67,2780.97 2544.05,2777.35C2537.86,2780.97 2531.15,2784.06 2523.92,2785.62C2515.14,2788.2 2505.85,2788.73 2497.07,2787.7C2474.36,2797.52 2451.13,2799.07 2427.9,2788.2L2421.18,2785.62C2401.04,2795.96 2375.75,2796.49 2354.07,2791.31C2346.83,2789.76 2339.61,2787.7 2332.38,2786.14C2312.76,2795.96 2290.05,2793.9 2268.37,2790.79C2221.9,2784.59 2186.27,2746.32 2166.66,2705.99C2142.91,2656.35 2139.29,2598.95 2151.69,2546.22C2167.18,2481.58 2175.43,2421.6 2162.53,2355.93C2158.91,2335.25 2153.23,2314.56 2147.55,2294.39C2136.71,2304.21 2124.33,2313 2110.9,2320.25C2057.72,2349.71 1945.7,2349.71 1885.29,2346.1C1838.82,2343.51 1784.61,2337.31 1737.64,2323.35C1736.61,2379.72 1718.53,2432.97 1689.1,2481.06L1684.98,2487.79L1679.3,2492.96C1666.91,2503.29 1654.52,2515.18 1644.19,2528.12C1637.48,2535.87 1621.99,2557.07 1624.05,2567.94C1624.58,2569.47 1625.08,2571.03 1626.12,2572.06C1644.19,2582.4 1661.22,2593.78 1677.23,2607.23C1722.15,2643.42 1754.67,2693.59 1731.96,2752.52L1725.76,2767.53L1711.82,2776.32C1688.6,2790.79 1661.74,2794.93 1635.41,2787.7C1625.08,2790.28 1614.77,2790.79 1604.44,2789.23C1589.98,2786.67 1573.46,2787.7 1559,2788.2C1517.19,2790.28 1470.21,2793.9 1434.07,2768.56L1432.52,2775.8L1408.25,2785.62C1381.92,2795.96 1355.08,2804.24 1327.2,2793.9C1325.14,2792.85 1323.07,2792.34 1321.01,2791.31C1311.71,2796.49 1301.38,2799.58 1290.54,2800.63C1241.5,2805.27 1177.48,2779.41 1156.83,2731.33C1154.25,2730.82 1151.67,2729.77 1149.09,2728.74C1126.88,2719.43 1113.98,2702.38 1105.72,2681.16C1084.04,2625.32 1056.68,2571.55 1033.95,2516.22C1024.14,2492.96 1022.08,2468.65 1028.79,2443.82C1037.57,2412.81 1059.25,2386.42 1084.55,2366.79C1093.33,2355.93 1100.04,2344.54 1105.2,2331.63C1119.66,2296.98 1123.27,2255.6 1127.92,2218.39C1127.92,2215.28 1128.44,2212.18 1128.95,2208.57C1126.88,2211.66 1124.82,2214.77 1122.76,2217.36C1088.69,2262.33 1054.09,2300.6 1006.08,2330.08C961.156,2357.47 911.081,2374.02 859.451,2383.33C844.486,2385.92 828.481,2387.47 812.992,2387.98C786.662,2388.5 753.622,2384.36 735.031,2362.64C719.026,2343.51 721.097,2318.7 729.353,2295.95C739.679,2268.03 762.917,2247.34 791.309,2238.55C827.451,2227.17 858.42,2208.57 884.235,2179.6C929.672,2128.92 954.972,2052.92 976.13,1989.31C1023.11,1847.12 1098.49,1723.02 1233.23,1649.59C1313.26,1606.16 1402.57,1586.5 1492.41,1575.65C1592.04,1563.75 1692.2,1562.21 1792.36,1558.07C1905.43,1552.9 2018.49,1545.15 2130,1527.04C2258.04,1505.85 2381.95,1471.2 2501.2,1420.01L2540.44,1403.47C2543.54,1398.81 2546.64,1394.67 2549.73,1390.54C2563.16,1371.4 2577.09,1352.27 2593.1,1334.69C2640.08,1281.95 2696.87,1248.34 2762.95,1224.03C2886.34,1179.05 3007.15,1195.6 3118.66,1263.33L3173.91,1296.42C3176.48,1298.5 3180.62,1301.08 3183.71,1302.64L3184.75,1302.64L3187.33,1303.67C3201.79,1309.35 3216.76,1314.53 3231.22,1321.25L3237.41,1323.83L3239.99,1329.52C3255.48,1360.03 3272,1391.58 3276.13,1425.7C3279.23,1454.14 3273.55,1479.99 3260.13,1504.81C3259.61,1538.94 3243.09,1568.41 3219.34,1592.2C3193.53,1617.54 3160.48,1635.12 3126.41,1644.94C3086.65,1655.8 3047.42,1675.97 3009.73,1693.03C3000.95,1697.16 2991.66,1701.3 2982.37,1704.92L2942.1,1741.12C2920.93,1760.25 2899.77,1790.76 2884.28,1814.55C2868.28,1839.36 2850.72,1869.36 2840.9,1897.28C2822.32,1947.96 2813.54,2002.77 2805.8,2055.5C2795.99,2119.1 2787.21,2183.23 2770.7,2245.28C2764.5,2268.53 2757.28,2291.3 2749.02,2314.05C2729.91,2367.31 2706.16,2418.49 2689.12,2471.75C2681.9,2493.47 2669,2537.43 2679.32,2559.15C2683.96,2569.47 2695.33,2575.69 2706.16,2579.82C2759.85,2580.34 2823.87,2594.3 2849.17,2647.04C2870.85,2691 2852.79,2747.88 2805.29,2764.93C2797.03,2768.04 2787.74,2769.59 2778.96,2769.07Z" style="fill:white;"/>
                    <path d="M1402.06,2430.39C1366.95,2453.14 1335.46,2482.09 1329.26,2516.22C1325.65,2535.87 1330.29,2555.01 1338.56,2573.11C1348.37,2594.83 1365.4,2614.99 1381.41,2632.57C1383.48,2634.63 1385.54,2637.22 1387.09,2639.28C1384.51,2629.98 1381.92,2620.67 1380.89,2610.85C1377.27,2586.02 1380.89,2561.73 1384.51,2537.43C1390.19,2501.75 1396.38,2466.07 1402.06,2430.39ZM2552.32,1417.94C2556.44,1412.25 2560.57,1407.08 2564.71,1401.39C2577.62,1382.26 2591.04,1364.16 2606.52,1347.11C2651.95,1296.42 2706.16,1264.37 2769.15,1241.1C2887.37,1198.18 3001.99,1213.7 3109.38,1278.85L3164.61,1312.46C3167.71,1314.01 3177.53,1320.21 3180.62,1320.73C3196.11,1326.93 3209.01,1331.07 3223.98,1337.79C3249.8,1390.02 3277.16,1440.69 3242.05,1499.64C3242.57,1531.19 3228.12,1557.55 3206.43,1579.27C3183.2,1602.02 3152.74,1618.57 3121.25,1627.36C3072.72,1640.8 3023.16,1668.21 2972.56,1689.4L2929.71,1727.67C2893.57,1760.25 2840.4,1844.53 2823.35,1890.56C2804.77,1942.26 2795.48,1998.63 2787.74,2052.92C2777.93,2115.99 2769.66,2178.57 2753.14,2240.61C2746.95,2263.36 2739.72,2285.61 2731.97,2307.83C2712.88,2361.11 2689.12,2412.81 2671.57,2466.07C2662.79,2493.47 2649.38,2539.49 2662.28,2566.91C2670.03,2582.93 2686.55,2592.22 2702.55,2597.92C2749.53,2597.92 2810.45,2608.26 2833.16,2655.32C2849.69,2689.44 2836.27,2734.44 2799.09,2747.88C2791.35,2750.46 2782.57,2751.49 2774.31,2750.46C2756.76,2761.31 2737.65,2766.48 2715.97,2758.74L2710.81,2757.19L2706.68,2754.08C2705.64,2753.05 2704.1,2752.02 2702.55,2750.97C2687.58,2766.48 2662.28,2771.15 2639.56,2767.53C2633.37,2767.01 2611.69,2763.39 2605.49,2767.01C2593.1,2773.74 2578.12,2775.8 2565.22,2769.59C2556.44,2765.45 2550.76,2759.77 2546.64,2752.52C2539.4,2759.77 2530.11,2765.45 2519.28,2768.04C2511.01,2770.1 2502.23,2770.1 2493.98,2768.56C2475.39,2777.88 2455.77,2780.97 2435.12,2771.66L2430.47,2769.59L2426.86,2765.98C2425.31,2764.93 2423.77,2763.39 2422.72,2762.36C2406.21,2776.83 2380.39,2778.89 2358.71,2773.21C2352,2771.66 2338.58,2768.04 2329.28,2767.01C2312.25,2777.88 2290.56,2775.27 2270.94,2772.7C2230.68,2767.53 2200.22,2732.36 2183.18,2697.73C2161.5,2652.21 2157.88,2599.48 2169.75,2550.34C2185.76,2483.12 2194.02,2421.07 2180.6,2352.83C2175.43,2326.46 2168.21,2300.09 2160.98,2274.23C2158.91,2268.53 2157.37,2261.83 2156.33,2255.6C2142.39,2275.79 2124.84,2291.81 2102.13,2304.21C2053.08,2331.63 1941.57,2331.11 1886.32,2328.01C1839.35,2325.43 1769.65,2317.67 1718.53,2297.5L1719.05,2303.71C1722.15,2364.2 1704.6,2420.57 1673.62,2471.75L1671.04,2475.89L1667.42,2479C1647.81,2496.05 1599.79,2541.05 1606.5,2572.06C1607.53,2577.23 1610.12,2581.9 1613.73,2586.02C1668.97,2617.58 1742.79,2673.42 1714.92,2745.81L1711.31,2755.11L1702.53,2760.81C1682.91,2772.7 1661.22,2775.8 1639.54,2769.59L1634.38,2768.56C1626.12,2771.66 1616.83,2772.7 1607.53,2771.15C1591.53,2768.56 1573.98,2769.59 1557.97,2770.1C1520.29,2771.66 1473.3,2776.32 1441.29,2751.49C1433.55,2744.78 1426.84,2737.53 1422.2,2728.74C1422.2,2734.44 1421.17,2740.12 1420.13,2745.81L1417.03,2762.36L1401.54,2768.56C1379.86,2776.83 1356.11,2785.11 1333.91,2776.83C1328.75,2774.77 1324.61,2772.18 1320.49,2769.59C1311.71,2776.83 1300.35,2780.97 1288.48,2782.52C1245.12,2786.67 1184.19,2761.84 1171.29,2716.86C1166.12,2715.31 1161.48,2714.26 1155.8,2711.69C1138.76,2704.44 1129.47,2691 1122.76,2674.45C1100.56,2618.08 1073.71,2564.83 1050.47,2508.98C1029.31,2457.28 1056.68,2410.73 1097.46,2379.72C1107.78,2367.82 1116.05,2353.86 1122.24,2338.86C1137.21,2302.15 1141.34,2259.75 1145.99,2220.45C1149.09,2193.05 1152.7,2166.16 1158.89,2139.27C1140.82,2160.99 1124.82,2183.74 1107.78,2206.49C1075.26,2249.4 1042.73,2285.61 996.267,2314.56C953.417,2340.92 905.918,2356.44 856.358,2365.23C809.891,2373.51 719.026,2378.68 746.388,2302.15C754.652,2279.4 773.75,2263.36 796.472,2256.13C836.221,2243.2 869.777,2223.03 897.663,2192.02C945.152,2139.27 971.482,2061.2 993.166,1995.01C1039.12,1857.46 1111.4,1736.46 1242.01,1665.62C1319.46,1623.22 1407.22,1604.09 1494.47,1593.75C1593.07,1582.37 1693.75,1580.3 1793.39,1576.17C1906.97,1571.51 2020.03,1563.75 2133.11,1545.15C2262.69,1523.43 2387.62,1488.78 2508.43,1437.08L2552.32,1417.94Z"/>
                    <path d="M2520.82,1465C2500.69,1489.3 2455.77,1514.64 2416.53,1526.01C2618.4,1508.95 2546.64,1355.37 2779.99,1270.06C2869.31,1237.48 2975.66,1233.34 3093.37,1305.22C3011.8,1287.12 2913.7,1329 2839.88,1362.61C2826.97,1367.27 2792.38,1377.09 2768.12,1360.03C2749.02,1347.11 2727.34,1340.38 2704.1,1344C2655.05,1352.78 2631.31,1402.43 2615.81,1443.79C2609.1,1461.9 2603.94,1478.44 2598.78,1494.98C2578.12,1553.41 2542.51,1607.19 2490.88,1656.31C2397.95,1739.05 2251.85,1803.17 2052.56,1848.15C1909.04,1885.38 1776.87,1897.28 1656.59,1884.86C1521.83,1848.67 1411.87,1827.98 1326.17,1823.85C1239.44,1819.2 1166.64,1863.15 1107.27,1956.22C1107.27,1956.22 1068.55,2033.78 991.104,2189.43C956.518,2244.25 910.05,2283.53 851.71,2307.33C809.891,2324.38 784.076,2329.55 773.243,2323.35C773.243,2311.47 782.014,2292.84 805.758,2285.08C936.896,2243.72 979.231,2134.1 1022.6,2004.83C1229.63,1380.71 1798.04,1774.21 2520.82,1465Z" style="fill:white;"/>
                    <path d="M1647.81,2740.12C1661.22,2743.73 1674.14,2742.18 1686.52,2734.44C1702.01,2694.62 1671.04,2653.24 1594.11,2610.33C1556.43,2571.03 1573.98,2519.33 1647.29,2455.72C1666.39,2424.69 1678.78,2393.68 1684.46,2362.14C1643.67,2360.58 1593.07,2383.86 1533.2,2431.94C1446.97,2502.78 1422.71,2581.37 1461.43,2668.25C1469.69,2695.65 1486.73,2710.13 1512.54,2711.16C1549.71,2726.16 1581.21,2735.47 1606.5,2739.61C1608.57,2740.12 1610.12,2740.64 1612.18,2740.64C1640.58,2744.26 1630.77,2707.02 1621.48,2690.48C1638,2701.34 1646.78,2717.89 1647.81,2740.12ZM3226.04,1429.83C3227.6,1445.86 3228.12,1459.83 3227.09,1470.68C3217.27,1472.23 3208.49,1471.2 3200.24,1468.61C3196.11,1462.93 3195.59,1455.68 3199.71,1447.42C3211.08,1442.25 3219.85,1436.55 3226.04,1429.83ZM2896.15,1435C2890.47,1437.08 2872.41,1452.58 2868.79,1456.21C2911.13,1377.09 2950.36,1412.77 3001.99,1410.7C2995.8,1412.77 2976.18,1417.43 2969.98,1417.43C2960.69,1465 2896.67,1463.97 2896.15,1435ZM2763.47,1508.95C2725.78,1502.74 2744.37,1468.1 2728.37,1455.68C2717.01,1452.07 2707.71,1460.86 2699.45,1481.54C2706.68,1421.04 2765.53,1414.84 2754.7,1469.13C2751.08,1488.26 2748.49,1494.98 2763.47,1508.95ZM2794.45,1880.21C2756.76,1983.63 2756.76,2107.2 2723.72,2232.85C2678.28,2405.56 2545.08,2578.79 2697.39,2628.95C2855.36,2625.84 2813.54,2740.64 2768.63,2716.86C2748.49,2732.88 2736.62,2733.39 2725.78,2729.77C2708.23,2716.34 2686.03,2707.02 2660.22,2703.41C2667.96,2708.05 2676.22,2713.23 2683.96,2719.43C2682.93,2737.01 2661.25,2740.64 2644.21,2737.53C2606.52,2732.36 2597.23,2735.99 2590.52,2740.12C2575.03,2748.91 2569.87,2734.44 2567.29,2717.89C2564.71,2698.23 2567.8,2681.69 2556.44,2664.11C2552.32,2658.41 2547.67,2653.24 2541.99,2648.59C2500.17,2608.26 2482.62,2564.83 2488.81,2517.26C2513.6,2334.22 2525.99,2242.69 2525.99,2242.69C2566.25,2162.54 2587.42,2077.73 2589.49,1988.28C2551.79,2195.11 2430.47,2200.28 2438.22,2370.93C2432.54,2445.38 2325.67,2602.57 2428.93,2640.33C2586.39,2652.21 2534.24,2762.36 2491.39,2734.44C2470.23,2748.91 2457.84,2748.4 2447.51,2743.73C2431.51,2728.22 2410.34,2717.37 2384.53,2711.16C2392.27,2716.34 2399.5,2722.54 2407.24,2729.27C2404.66,2746.84 2382.46,2748.4 2365.94,2743.73C2280.24,2724.09 2345.8,2754.6 2274.56,2742.18C2228.09,2738.06 2173.89,2655.84 2199.7,2557.59C2229.64,2416.43 2216.22,2356.97 2190.41,2265.95C2175.95,2215.28 2181.12,2147.55 2209.51,2094.8C2183.7,2111.35 2162.01,2138.24 2144.46,2175.47C2089.21,2254.07 1984.93,2288.19 1831.08,2278.37C1720.6,2268.53 1666.39,2230.79 1667.94,2165.13C1670.52,2143.41 1680.33,2121.17 1697.88,2102.56C1703.56,2091.18 1713.89,2079.28 1728.86,2066.88C1628.18,2074.11 1553.84,2137.71 1506.87,2258.21C1420.64,2322.84 1352.5,2387.98 1302.93,2452.61C1285.9,2479.5 1279.7,2508.98 1285.38,2540.52C1295.19,2577.76 1318.94,2613.96 1355.59,2650.15C1356.62,2651.18 1357.66,2652.21 1358.69,2653.24C1385.02,2684.27 1395.35,2713.23 1390.19,2739.61C1356.62,2753.05 1338.04,2757.19 1325.65,2723.57C1318.94,2705.47 1308.1,2689.97 1293.64,2677.55C1305.52,2698.23 1323.07,2747.88 1285.38,2752.02C1246.15,2755.63 1198.65,2728.74 1199.16,2698.76C1175.93,2678.59 1163.54,2694.09 1151.15,2663.08C1122.24,2589.13 1112.95,2570.52 1078.87,2497.61C1064.42,2457.28 1088.69,2424.18 1118.11,2402.47C1218.78,2290.25 1124.3,2097.91 1291.57,2009.48C1048.93,2095.83 1124.82,2318.17 784.6,2343C993.166,2309.91 1011.24,2194.61 1100.56,2048.77C1149.6,1973.8 1208.97,1902.46 1291.57,1886.41C1350.94,1875.04 1427.87,1895.73 1485.69,1910.2C1581.21,1933.47 1670,1953.63 1769.65,1951.05C1932.27,1946.91 2244.61,1880.21 2386.59,1802.65C2437.18,1775.24 2537.86,1712.16 2612.2,1602.54C2619.94,1588.06 2626.66,1573.58 2632.86,1558.07C2646.79,1527.56 2651.44,1492.92 2663.32,1461.9C2685,1403.98 2705.13,1382.78 2739.72,1402.43C2769.15,1426.22 2813.04,1412.77 2845.04,1401.39C2884.79,1387.43 2923,1369.33 2962.75,1353.82C3003.02,1338.31 3071.17,1315.04 3113.51,1333.14C3125.38,1338.31 3134.67,1338.82 3143.96,1337.28C3157.9,1343.48 3202.3,1364.16 3209.01,1369.86C3173.39,1365.71 3129.51,1362.1 3119.19,1429.83C3119.7,1451.04 3139.31,1457.75 3153.77,1457.75C3153.26,1465 3150.15,1470.68 3143.96,1474.82C3111.44,1483.09 3114.54,1487.75 3114.01,1500.15C3112.98,1518.25 3090.78,1530.66 3015.92,1548.25C3042.77,1547.73 3086.14,1538.94 3106.79,1530.66C3161.52,1508.44 3106.27,1496.54 3211.08,1503.26C3212.63,1537.9 3170.81,1578.24 3112.98,1597.37C3015.92,1619.6 2915.25,1704.41 2822.32,1685.27C2855.36,1696.13 2880.66,1701.82 2909.57,1704.92C2871.88,1738.01 2814.58,1825.92 2794.45,1880.21Z" style="fill:rgb(109,116,122);"/>
                </g>
            </g>
        </g>
        <path d="M360.833,814.39L360.833,999.118C360.833,1084.14 429.755,1153.06 514.774,1153.06C599.793,1153.06 668.714,1084.14 668.714,999.118L668.714,814.39L360.833,814.39Z" style="fill:none;fill-rule:nonzero;stroke:white;stroke-width:8px;"/>
    </g>
</svg>
